REM DIRINDEX 1\2\4\18,1\2\4\19,1\2\5\20,1\2\5\21,1\2\6\22,1\2\7\23,1\2\8\24,1\2\8\25,1\2\9\26,1\2\10\27,1\3\11\28,1\3\11\29,1\3\11\30,1\3\11\31,1\3\12\32,1\3\12\33,1\3\12\34,1\3\12\35,1\3\13\36,1\3\13\37,1\3\14\38,1\3\14\39,1\3\15\40,1\3\15\41,1\3\15\42,1\3\16\43,1\3\16\44,1\3\17\45,1\3\17\46
REM DIRNAME folder01,folder02,folder03,folder04,folder05,folder06,folder07,folder08,folder09,folder10,folder11,folder12,folder13,folder14,folder15,folder16,folder17,folder18,folder19,folder20,folder21,folder22,folder23,folder24,folder25,folder26,folder27,folder28,folder29,folder30,folder31,folder32,folder33,folder34,folder35,folder36,folder37,folder38,folder39,folder40,folder41,folder42,folder43,folder44,folder45,folder46
TITLE ""
FILE "05.mp3" MP3
  TRACK 01 AUDIO
    TITLE "0:"
    INDEX 01 00:00:00
  TRACK 02 AUDIO
    TITLE "32:cjc024_4396"
    INDEX 01 00:00:19
  TRACK 03 AUDIO
    TITLE "0:"
    INDEX 01 00:01:22
  TRACK 04 AUDIO
    TITLE "33:cjc024_4397"
    INDEX 01 00:01:60
  TRACK 05 AUDIO
    TITLE "0:"
    INDEX 01 00:03:59
  TRACK 06 AUDIO
    TITLE "34:cjc024_4398"
    INDEX 01 00:04:23
  TRACK 07 AUDIO
    TITLE "0:"
    INDEX 01 00:06:08
  TRACK 08 AUDIO
    TITLE "35:cjc024_4399"
    INDEX 01 00:06:37
  TRACK 09 AUDIO
    TITLE "0:"
    INDEX 01 00:08:24
  TRACK 10 AUDIO
    TITLE "32:cjc024_4400"
    INDEX 01 00:09:28
  TRACK 11 AUDIO
    TITLE "0:"
    INDEX 01 00:10:27
  TRACK 12 AUDIO
    TITLE "33:cjc024_4401"
    INDEX 01 00:10:70
  TRACK 13 AUDIO
    TITLE "0:"
    INDEX 01 00:13:73
  TRACK 14 AUDIO
    TITLE "34:cjc024_4402"
    INDEX 01 00:14:35
  TRACK 15 AUDIO
    TITLE "0:"
    INDEX 01 00:16:55
  TRACK 16 AUDIO
    TITLE "35:cjc024_4403"
    INDEX 01 00:17:12
  TRACK 17 AUDIO
    TITLE "0:"
    INDEX 01 00:19:34
  TRACK 18 AUDIO
    TITLE "32:cjc024_4404"
    INDEX 01 00:20:37
  TRACK 19 AUDIO
    TITLE "0:"
    INDEX 01 00:21:33
  TRACK 20 AUDIO
    TITLE "33:cjc024_4405"
    INDEX 01 00:21:72
  TRACK 21 AUDIO
    TITLE "0:"
    INDEX 01 00:24:31
  TRACK 22 AUDIO
    TITLE "34:cjc024_4406"
    INDEX 01 00:24:71
  TRACK 23 AUDIO
    TITLE "0:"
    INDEX 01 00:27:32
  TRACK 24 AUDIO
    TITLE "35:cjc024_4407"
    INDEX 01 00:27:59
  TRACK 25 AUDIO
    TITLE "0:"
    INDEX 01 00:30:20
  TRACK 26 AUDIO
    TITLE "32:cjc024_4408"
    INDEX 01 00:31:24
  TRACK 27 AUDIO
    TITLE "0:"
    INDEX 01 00:32:29
  TRACK 28 AUDIO
    TITLE "33:cjc024_4409"
    INDEX 01 00:32:66
  TRACK 29 AUDIO
    TITLE "0:"
    INDEX 01 00:34:69
  TRACK 30 AUDIO
    TITLE "34:cjc024_4410"
    INDEX 01 00:35:33
  TRACK 31 AUDIO
    TITLE "0:"
    INDEX 01 00:37:50
  TRACK 32 AUDIO
    TITLE "35:cjc024_4411"
    INDEX 01 00:38:08
  TRACK 33 AUDIO
    TITLE "0:"
    INDEX 01 00:40:24
  TRACK 34 AUDIO
    TITLE "32:cjc024_4412"
    INDEX 01 00:41:40
  TRACK 35 AUDIO
    TITLE "0:"
    INDEX 01 00:42:35
  TRACK 36 AUDIO
    TITLE "33:cjc024_4413"
    INDEX 01 00:42:72
  TRACK 37 AUDIO
    TITLE "0:"
    INDEX 01 00:45:33
  TRACK 38 AUDIO
    TITLE "34:cjc024_4414"
    INDEX 01 00:46:02
  TRACK 39 AUDIO
    TITLE "0:"
    INDEX 01 00:48:26
  TRACK 40 AUDIO
    TITLE "35:cjc024_4415"
    INDEX 01 00:48:55
  TRACK 41 AUDIO
    TITLE "0:"
    INDEX 01 00:51:07
  TRACK 42 AUDIO
    TITLE "32:cjc024_4416"
    INDEX 01 00:52:06
  TRACK 43 AUDIO
    TITLE "0:"
    INDEX 01 00:53:00
  TRACK 44 AUDIO
    TITLE "33:cjc024_4417"
    INDEX 01 00:53:37
  TRACK 45 AUDIO
    TITLE "0:"
    INDEX 01 00:56:29
  TRACK 46 AUDIO
    TITLE "34:cjc024_4418"
    INDEX 01 00:56:71
  TRACK 47 AUDIO
    TITLE "0:"
    INDEX 01 00:59:26
  TRACK 48 AUDIO
    TITLE "35:cjc024_4419"
    INDEX 01 00:59:55
  TRACK 49 AUDIO
    TITLE "0:"
    INDEX 01 01:02:10
  TRACK 50 AUDIO
    TITLE "32:cjc024_4420"
    INDEX 01 01:03:10
  TRACK 51 AUDIO
    TITLE "0:"
    INDEX 01 01:04:27
  TRACK 52 AUDIO
    TITLE "33:cjc024_4421"
    INDEX 01 01:04:62
  TRACK 53 AUDIO
    TITLE "0:"
    INDEX 01 01:07:70
  TRACK 54 AUDIO
    TITLE "34:cjc024_4422"
    INDEX 01 01:08:35
  TRACK 55 AUDIO
    TITLE "0:"
    INDEX 01 01:11:02
  TRACK 56 AUDIO
    TITLE "35:cjc024_4423"
    INDEX 01 01:11:25
  TRACK 57 AUDIO
    TITLE "0:"
    INDEX 01 01:13:69
  TRACK 58 AUDIO
    TITLE "32:cjc024_4424"
    INDEX 01 01:14:68
  TRACK 59 AUDIO
    TITLE "0:"
    INDEX 01 01:15:58
  TRACK 60 AUDIO
    TITLE "33:cjc024_4425"
    INDEX 01 01:16:20
  TRACK 61 AUDIO
    TITLE "0:"
    INDEX 01 01:18:74
  TRACK 62 AUDIO
    TITLE "34:cjc024_4426"
    INDEX 01 01:19:38
  TRACK 63 AUDIO
    TITLE "0:"
    INDEX 01 01:21:16
  TRACK 64 AUDIO
    TITLE "35:cjc024_4427"
    INDEX 01 01:21:41
  TRACK 65 AUDIO
    TITLE "0:"
    INDEX 01 01:23:18
  TRACK 66 AUDIO
    TITLE "32:cjc024_4428"
    INDEX 01 01:24:18
  TRACK 67 AUDIO
    TITLE "0:"
    INDEX 01 01:25:17
  TRACK 68 AUDIO
    TITLE "33:cjc024_4429"
    INDEX 01 01:25:57
  TRACK 69 AUDIO
    TITLE "0:"
    INDEX 01 01:28:04
  TRACK 70 AUDIO
    TITLE "34:cjc024_4430"
    INDEX 01 01:28:43
  TRACK 71 AUDIO
    TITLE "0:"
    INDEX 01 01:30:56
  TRACK 72 AUDIO
    TITLE "35:cjc024_4431"
    INDEX 01 01:31:06
  TRACK 73 AUDIO
    TITLE "0:"
    INDEX 01 01:33:17
  TRACK 74 AUDIO
    TITLE "32:cjc024_4432"
    INDEX 01 01:34:18
  TRACK 75 AUDIO
    TITLE "0:"
    INDEX 01 01:35:27
  TRACK 76 AUDIO
    TITLE "33:cjc024_4433"
    INDEX 01 01:35:65
  TRACK 77 AUDIO
    TITLE "0:"
    INDEX 01 01:38:26
  TRACK 78 AUDIO
    TITLE "34:cjc024_4434"
    INDEX 01 01:38:63
  TRACK 79 AUDIO
    TITLE "0:"
    INDEX 01 01:40:70
  TRACK 80 AUDIO
    TITLE "35:cjc024_4435"
    INDEX 01 01:41:20
  TRACK 81 AUDIO
    TITLE "0:"
    INDEX 01 01:43:29
  TRACK 82 AUDIO
    TITLE "32:cjc024_4436"
    INDEX 01 01:44:28
  TRACK 83 AUDIO
    TITLE "0:"
    INDEX 01 01:45:22
  TRACK 84 AUDIO
    TITLE "33:cjc024_4437"
    INDEX 01 01:45:59
  TRACK 85 AUDIO
    TITLE "0:"
    INDEX 01 01:48:38
  TRACK 86 AUDIO
    TITLE "34:cjc024_4438"
    INDEX 01 01:49:00
  TRACK 87 AUDIO
    TITLE "0:"
    INDEX 01 01:51:27
  TRACK 88 AUDIO
    TITLE "35:cjc024_4439"
    INDEX 01 01:51:50
  TRACK 89 AUDIO
    TITLE "0:"
    INDEX 01 01:54:01
  TRACK 90 AUDIO
    TITLE "32:cjc024_4440"
    INDEX 01 01:55:01
  TRACK 91 AUDIO
    TITLE "0:"
    INDEX 01 01:56:00
  TRACK 92 AUDIO
    TITLE "33:cjc024_4441"
    INDEX 01 01:56:34
  TRACK 93 AUDIO
    TITLE "0:"
    INDEX 01 01:59:34
  TRACK 94 AUDIO
    TITLE "34:cjc024_4442"
    INDEX 01 01:59:71
  TRACK 95 AUDIO
    TITLE "0:"
    INDEX 01 02:02:01
  TRACK 96 AUDIO
    TITLE "35:cjc024_4443"
    INDEX 01 02:02:26
  TRACK 97 AUDIO
    TITLE "0:"
    INDEX 01 02:04:31
  TRACK 98 AUDIO
    TITLE "32:cjc024_4444"
    INDEX 01 02:05:33
  TRACK 99 AUDIO
    TITLE "0:"
    INDEX 01 02:06:30
  TRACK 100 AUDIO
    TITLE "33:cjc024_4445"
    INDEX 01 02:06:69
  TRACK 101 AUDIO
    TITLE "0:"
    INDEX 01 02:09:69
  TRACK 102 AUDIO
    TITLE "34:cjc024_4446"
    INDEX 01 02:10:30
  TRACK 103 AUDIO
    TITLE "0:"
    INDEX 01 02:12:72
  TRACK 104 AUDIO
    TITLE "35:cjc024_4447"
    INDEX 01 02:13:22
  TRACK 105 AUDIO
    TITLE "0:"
    INDEX 01 02:15:64
  TRACK 106 AUDIO
    TITLE "32:cjc024_4448"
    INDEX 01 02:16:66
  TRACK 107 AUDIO
    TITLE "0:"
    INDEX 01 02:18:06
  TRACK 108 AUDIO
    TITLE "33:cjc024_4449"
    INDEX 01 02:18:43
  TRACK 109 AUDIO
    TITLE "0:"
    INDEX 01 02:21:35
  TRACK 110 AUDIO
    TITLE "34:cjc024_4450"
    INDEX 01 02:21:73
  TRACK 111 AUDIO
    TITLE "0:"
    INDEX 01 02:24:18
  TRACK 112 AUDIO
    TITLE "35:cjc024_4451"
    INDEX 01 02:24:46
  TRACK 113 AUDIO
    TITLE "0:"
    INDEX 01 02:26:66
  TRACK 114 AUDIO
    TITLE "32:cjc024_4452"
    INDEX 01 02:27:67
  TRACK 115 AUDIO
    TITLE "0:"
    INDEX 01 02:28:69
  TRACK 116 AUDIO
    TITLE "33:cjc024_4453"
    INDEX 01 02:29:31
  TRACK 117 AUDIO
    TITLE "0:"
    INDEX 01 02:31:32
  TRACK 118 AUDIO
    TITLE "34:cjc024_4454"
    INDEX 01 02:31:69
  TRACK 119 AUDIO
    TITLE "0:"
    INDEX 01 02:33:68
  TRACK 120 AUDIO
    TITLE "35:cjc024_4455"
    INDEX 01 02:34:18
  TRACK 121 AUDIO
    TITLE "0:"
    INDEX 01 02:36:17
  TRACK 122 AUDIO
    TITLE "32:cjc024_4456"
    INDEX 01 02:37:17
  TRACK 123 AUDIO
    TITLE "0:"
    INDEX 01 02:38:14
  TRACK 124 AUDIO
    TITLE "33:cjc024_4457"
    INDEX 01 02:38:54
  TRACK 125 AUDIO
    TITLE "0:"
    INDEX 01 02:41:60
  TRACK 126 AUDIO
    TITLE "34:cjc024_4458"
    INDEX 01 02:42:22
  TRACK 127 AUDIO
    TITLE "0:"
    INDEX 01 02:44:60
  TRACK 128 AUDIO
    TITLE "35:cjc024_4459"
    INDEX 01 02:45:10
  TRACK 129 AUDIO
    TITLE "0:"
    INDEX 01 02:47:49
  TRACK 130 AUDIO
    TITLE "32:cjc024_4460"
    INDEX 01 02:48:48
  TRACK 131 AUDIO
    TITLE "0:"
    INDEX 01 02:49:59
  TRACK 132 AUDIO
    TITLE "33:cjc024_4461"
    INDEX 01 02:50:27
  TRACK 133 AUDIO
    TITLE "0:"
    INDEX 01 02:53:32
  TRACK 134 AUDIO
    TITLE "34:cjc024_4462"
    INDEX 01 02:53:67
  TRACK 135 AUDIO
    TITLE "0:"
    INDEX 01 02:56:10
  TRACK 136 AUDIO
    TITLE "35:cjc024_4463"
    INDEX 01 02:56:36
  TRACK 137 AUDIO
    TITLE "0:"
    INDEX 01 02:58:52
  TRACK 138 AUDIO
    TITLE "32:cjc024_4464"
    INDEX 01 02:59:54
  TRACK 139 AUDIO
    TITLE "0:"
    INDEX 01 03:00:69
  TRACK 140 AUDIO
    TITLE "33:cjc024_4465"
    INDEX 01 03:01:31
  TRACK 141 AUDIO
    TITLE "0:"
    INDEX 01 03:04:43
  TRACK 142 AUDIO
    TITLE "34:cjc024_4466"
    INDEX 01 03:05:05
  TRACK 143 AUDIO
    TITLE "0:"
    INDEX 01 03:07:16
  TRACK 144 AUDIO
    TITLE "35:cjc024_4467"
    INDEX 01 03:07:39
  TRACK 145 AUDIO
    TITLE "0:"
    INDEX 01 03:09:50
  TRACK 146 AUDIO
    TITLE "32:cjc024_4468"
    INDEX 01 03:10:54
  TRACK 147 AUDIO
    TITLE "0:"
    INDEX 01 03:11:39
  TRACK 148 AUDIO
    TITLE "33:cjc024_4469"
    INDEX 01 03:12:03
  TRACK 149 AUDIO
    TITLE "0:"
    INDEX 01 03:15:35
  TRACK 150 AUDIO
    TITLE "34:cjc024_4470"
    INDEX 01 03:15:74
  TRACK 151 AUDIO
    TITLE "0:"
    INDEX 01 03:18:35
  TRACK 152 AUDIO
    TITLE "35:cjc024_4471"
    INDEX 01 03:18:61
  TRACK 153 AUDIO
    TITLE "0:"
    INDEX 01 03:21:22
  TRACK 154 AUDIO
    TITLE "32:cjc024_4472"
    INDEX 01 03:22:23
  TRACK 155 AUDIO
    TITLE "0:"
    INDEX 01 03:23:25
  TRACK 156 AUDIO
    TITLE "33:cjc024_4473"
    INDEX 01 03:23:60
  TRACK 157 AUDIO
    TITLE "0:"
    INDEX 01 03:25:71
  TRACK 158 AUDIO
    TITLE "34:cjc024_4474"
    INDEX 01 03:26:33
  TRACK 159 AUDIO
    TITLE "0:"
    INDEX 01 03:28:69
  TRACK 160 AUDIO
    TITLE "35:cjc024_4475"
    INDEX 01 03:29:21
  TRACK 161 AUDIO
    TITLE "0:"
    INDEX 01 03:31:60
  TRACK 162 AUDIO
    TITLE "32:cjc024_4476"
    INDEX 01 03:32:57
  TRACK 163 AUDIO
    TITLE "0:"
    INDEX 01 03:33:57
  TRACK 164 AUDIO
    TITLE "33:cjc024_4477"
    INDEX 01 03:34:19
  TRACK 165 AUDIO
    TITLE "0:"
    INDEX 01 03:37:07
  TRACK 166 AUDIO
    TITLE "34:cjc024_4478"
    INDEX 01 03:37:45
  TRACK 167 AUDIO
    TITLE "0:"
    INDEX 01 03:39:61
  TRACK 168 AUDIO
    TITLE "35:cjc024_4479"
    INDEX 01 03:40:12
  TRACK 169 AUDIO
    TITLE "0:"
    INDEX 01 03:42:28
  TRACK 170 AUDIO
    TITLE "32:cjc024_4480"
    INDEX 01 03:43:26
  TRACK 171 AUDIO
    TITLE "0:"
    INDEX 01 03:44:33
  TRACK 172 AUDIO
    TITLE "33:cjc024_4481"
    INDEX 01 03:44:70
  TRACK 173 AUDIO
    TITLE "0:"
    INDEX 01 03:47:33
  TRACK 174 AUDIO
    TITLE "34:cjc024_4482"
    INDEX 01 03:47:70
  TRACK 175 AUDIO
    TITLE "0:"
    INDEX 01 03:50:00
  TRACK 176 AUDIO
    TITLE "35:cjc024_4483"
    INDEX 01 03:50:22
  TRACK 177 AUDIO
    TITLE "0:"
    INDEX 01 03:52:26
  TRACK 178 AUDIO
    TITLE "32:cjc024_4484"
    INDEX 01 03:53:24
  TRACK 179 AUDIO
    TITLE "0:"
    INDEX 01 03:55:13
  TRACK 180 AUDIO
    TITLE "33:cjc024_4485"
    INDEX 01 03:55:50
  TRACK 181 AUDIO
    TITLE "0:"
    INDEX 01 03:58:25
  TRACK 182 AUDIO
    TITLE "34:cjc024_4486"
    INDEX 01 03:58:60
  TRACK 183 AUDIO
    TITLE "0:"
    INDEX 01 04:01:39
  TRACK 184 AUDIO
    TITLE "35:cjc024_4487"
    INDEX 01 04:01:67
  TRACK 185 AUDIO
    TITLE "0:"
    INDEX 01 04:04:45
  TRACK 186 AUDIO
    TITLE "32:cjc024_4488"
    INDEX 01 04:05:51
  TRACK 187 AUDIO
    TITLE "0:"
    INDEX 01 04:06:56
  TRACK 188 AUDIO
    TITLE "33:cjc024_4489"
    INDEX 01 04:07:20
  TRACK 189 AUDIO
    TITLE "0:"
    INDEX 01 04:09:46
  TRACK 190 AUDIO
    TITLE "34:cjc024_4490"
    INDEX 01 04:10:13
  TRACK 191 AUDIO
    TITLE "0:"
    INDEX 01 04:12:55
  TRACK 192 AUDIO
    TITLE "35:cjc024_4491"
    INDEX 01 04:13:03
  TRACK 193 AUDIO
    TITLE "0:"
    INDEX 01 04:15:45
  TRACK 194 AUDIO
    TITLE "32:cjc024_4492"
    INDEX 01 04:16:47
  TRACK 195 AUDIO
    TITLE "0:"
    INDEX 01 04:18:22
  TRACK 196 AUDIO
    TITLE "33:cjc024_4493"
    INDEX 01 04:18:59
  TRACK 197 AUDIO
    TITLE "0:"
    INDEX 01 04:21:07
  TRACK 198 AUDIO
    TITLE "34:cjc024_4494"
    INDEX 01 04:21:38
  TRACK 199 AUDIO
    TITLE "0:"
    INDEX 01 04:23:68
  TRACK 200 AUDIO
    TITLE "35:cjc024_4495"
    INDEX 01 04:24:23
  TRACK 201 AUDIO
    TITLE "0:"
    INDEX 01 04:26:53
  TRACK 202 AUDIO
    TITLE "32:cjc024_4496"
    INDEX 01 04:27:64
  TRACK 203 AUDIO
    TITLE "0:"
    INDEX 01 04:28:73
  TRACK 204 AUDIO
    TITLE "33:cjc024_4497"
    INDEX 01 04:29:43
  TRACK 205 AUDIO
    TITLE "0:"
    INDEX 01 04:33:14
  TRACK 206 AUDIO
    TITLE "34:cjc024_4498"
    INDEX 01 04:33:51
  TRACK 207 AUDIO
    TITLE "0:"
    INDEX 01 04:36:26
  TRACK 208 AUDIO
    TITLE "35:cjc024_4499"
    INDEX 01 04:36:55
  TRACK 209 AUDIO
    TITLE "0:"
    INDEX 01 04:39:30
  TRACK 210 AUDIO
    TITLE "32:cjc024_4500"
    INDEX 01 04:40:35
  TRACK 211 AUDIO
    TITLE "0:"
    INDEX 01 04:41:35
  TRACK 212 AUDIO
    TITLE "33:cjc024_4501"
    INDEX 01 04:41:74
  TRACK 213 AUDIO
    TITLE "0:"
    INDEX 01 04:44:68
  TRACK 214 AUDIO
    TITLE "34:cjc024_4502"
    INDEX 01 04:45:33
  TRACK 215 AUDIO
    TITLE "0:"
    INDEX 01 04:47:65
  TRACK 216 AUDIO
    TITLE "35:cjc024_4503"
    INDEX 01 04:48:27
  TRACK 217 AUDIO
    TITLE "0:"
    INDEX 01 04:50:63
  TRACK 218 AUDIO
    TITLE "32:cjc024_4504"
    INDEX 01 04:52:01
  TRACK 219 AUDIO
    TITLE "0:"
    INDEX 01 04:53:09
  TRACK 220 AUDIO
    TITLE "33:cjc024_4505"
    INDEX 01 04:53:54
  TRACK 221 AUDIO
    TITLE "0:"
    INDEX 01 04:56:23
  TRACK 222 AUDIO
    TITLE "34:cjc024_4506"
    INDEX 01 04:56:60
  TRACK 223 AUDIO
    TITLE "0:"
    INDEX 01 04:59:29
  TRACK 224 AUDIO
    TITLE "35:cjc024_4507"
    INDEX 01 04:59:52
  TRACK 225 AUDIO
    TITLE "0:"
    INDEX 01 05:02:21
  TRACK 226 AUDIO
    TITLE "32:cjc024_4508"
    INDEX 01 05:03:25
  TRACK 227 AUDIO
    TITLE "0:"
    INDEX 01 05:04:24
  TRACK 228 AUDIO
    TITLE "33:cjc024_4509"
    INDEX 01 05:04:65
  TRACK 229 AUDIO
    TITLE "0:"
    INDEX 01 05:06:58
  TRACK 230 AUDIO
    TITLE "34:cjc024_4510"
    INDEX 01 05:07:20
  TRACK 231 AUDIO
    TITLE "0:"
    INDEX 01 05:09:41
  TRACK 232 AUDIO
    TITLE "35:cjc024_4511"
    INDEX 01 05:09:64
  TRACK 233 AUDIO
    TITLE "0:"
    INDEX 01 05:12:10
  TRACK 234 AUDIO
    TITLE "32:cjc024_4512"
    INDEX 01 05:13:11
  TRACK 235 AUDIO
    TITLE "0:"
    INDEX 01 05:14:40
  TRACK 236 AUDIO
    TITLE "33:cjc024_4513"
    INDEX 01 05:15:04
  TRACK 237 AUDIO
    TITLE "0:"
    INDEX 01 05:17:58
  TRACK 238 AUDIO
    TITLE "34:cjc024_4514"
    INDEX 01 05:18:20
  TRACK 239 AUDIO
    TITLE "0:"
    INDEX 01 05:20:58
  TRACK 240 AUDIO
    TITLE "35:cjc024_4515"
    INDEX 01 05:21:13
  TRACK 241 AUDIO
    TITLE "0:"
    INDEX 01 05:23:49
  TRACK 242 AUDIO
    TITLE "32:cjc024_4516"
    INDEX 01 05:24:50
  TRACK 243 AUDIO
    TITLE "0:"
    INDEX 01 05:25:56
  TRACK 244 AUDIO
    TITLE "33:cjc024_4517"
    INDEX 01 05:26:24
  TRACK 245 AUDIO
    TITLE "0:"
    INDEX 01 05:29:38
  TRACK 246 AUDIO
    TITLE "34:cjc024_4518"
    INDEX 01 05:29:69
  TRACK 247 AUDIO
    TITLE "0:"
    INDEX 01 05:32:60
  TRACK 248 AUDIO
    TITLE "35:cjc024_4519"
    INDEX 01 05:33:04
  TRACK 249 AUDIO
    TITLE "0:"
    INDEX 01 05:35:70
  TRACK 250 AUDIO
    TITLE "32:cjc024_4520"
    INDEX 01 05:36:67
  TRACK 251 AUDIO
    TITLE "0:"
    INDEX 01 05:38:07
  TRACK 252 AUDIO
    TITLE "33:cjc024_4521"
    INDEX 01 05:38:50
  TRACK 253 AUDIO
    TITLE "0:"
    INDEX 01 05:41:70
  TRACK 254 AUDIO
    TITLE "34:cjc024_4522"
    INDEX 01 05:42:38
  TRACK 255 AUDIO
    TITLE "0:"
    INDEX 01 05:45:25
  TRACK 256 AUDIO
    TITLE "35:cjc024_4523"
    INDEX 01 05:45:56
  TRACK 257 AUDIO
    TITLE "0:"
    INDEX 01 05:48:41
  TRACK 258 AUDIO
    TITLE "32:cjc024_4524"
    INDEX 01 05:49:42
  TRACK 259 AUDIO
    TITLE "0:"
    INDEX 01 05:50:50
  TRACK 260 AUDIO
    TITLE "33:cjc024_4525"
    INDEX 01 05:51:14
  TRACK 261 AUDIO
    TITLE "0:"
    INDEX 01 05:53:60
  TRACK 262 AUDIO
    TITLE "34:cjc024_4526"
    INDEX 01 05:54:20
  TRACK 263 AUDIO
    TITLE "0:"
    INDEX 01 05:56:68
  TRACK 264 AUDIO
    TITLE "35:cjc024_4527"
    INDEX 01 05:57:18
  TRACK 265 AUDIO
    TITLE "0:"
    INDEX 01 05:59:66
  TRACK 266 AUDIO
    TITLE "32:cjc024_4528"
    INDEX 01 06:00:68
  TRACK 267 AUDIO
    TITLE "0:"
    INDEX 01 06:01:61
  TRACK 268 AUDIO
    TITLE "33:cjc024_4529"
    INDEX 01 06:02:41
  TRACK 269 AUDIO
    TITLE "0:"
    INDEX 01 06:04:73
  TRACK 270 AUDIO
    TITLE "34:cjc024_4530"
    INDEX 01 06:05:37
  TRACK 271 AUDIO
    TITLE "0:"
    INDEX 01 06:07:50
  TRACK 272 AUDIO
    TITLE "35:cjc024_4531"
    INDEX 01 06:08:00
  TRACK 273 AUDIO
    TITLE "0:"
    INDEX 01 06:10:13
  TRACK 274 AUDIO
    TITLE "32:cjc024_4532"
    INDEX 01 06:11:15
  TRACK 275 AUDIO
    TITLE "0:"
    INDEX 01 06:12:16
  TRACK 276 AUDIO
    TITLE "33:cjc024_4533"
    INDEX 01 06:12:53
  TRACK 277 AUDIO
    TITLE "0:"
    INDEX 01 06:15:44
  TRACK 278 AUDIO
    TITLE "34:cjc024_4534"
    INDEX 01 06:16:02
  TRACK 279 AUDIO
    TITLE "0:"
    INDEX 01 06:18:71
  TRACK 280 AUDIO
    TITLE "35:cjc024_4535"
    INDEX 01 06:19:20
  TRACK 281 AUDIO
    TITLE "0:"
    INDEX 01 06:22:14
  TRACK 282 AUDIO
    TITLE "32:cjc024_4536"
    INDEX 01 06:23:14
  TRACK 283 AUDIO
    TITLE "0:"
    INDEX 01 06:24:31
  TRACK 284 AUDIO
    TITLE "33:cjc024_4537"
    INDEX 01 06:24:64
  TRACK 285 AUDIO
    TITLE "0:"
    INDEX 01 06:27:61
  TRACK 286 AUDIO
    TITLE "34:cjc024_4538"
    INDEX 01 06:28:23
  TRACK 287 AUDIO
    TITLE "0:"
    INDEX 01 06:30:73
  TRACK 288 AUDIO
    TITLE "35:cjc024_4539"
    INDEX 01 06:31:21
  TRACK 289 AUDIO
    TITLE "0:"
    INDEX 01 06:33:67
  TRACK 290 AUDIO
    TITLE "32:cjc024_4540"
    INDEX 01 06:34:68
  TRACK 291 AUDIO
    TITLE "0:"
    INDEX 01 06:36:03
  TRACK 292 AUDIO
    TITLE "33:cjc024_4541"
    INDEX 01 06:36:42
  TRACK 293 AUDIO
    TITLE "0:"
    INDEX 01 06:39:40
  TRACK 294 AUDIO
    TITLE "34:cjc024_4542"
    INDEX 01 06:40:02
  TRACK 295 AUDIO
    TITLE "0:"
    INDEX 01 06:42:41
  TRACK 296 AUDIO
    TITLE "35:cjc024_4543"
    INDEX 01 06:42:66
  TRACK 297 AUDIO
    TITLE "0:"
    INDEX 01 06:45:29
  TRACK 298 AUDIO
    TITLE "32:cjc024_4544"
    INDEX 01 06:46:29
  TRACK 299 AUDIO
    TITLE "0:"
    INDEX 01 06:47:32
  TRACK 300 AUDIO
    TITLE "33:cjc024_4545"
    INDEX 01 06:47:71
  TRACK 301 AUDIO
    TITLE "0:"
    INDEX 01 06:51:57
  TRACK 302 AUDIO
    TITLE "34:cjc024_4546"
    INDEX 01 06:52:19
  TRACK 303 AUDIO
    TITLE "0:"
    INDEX 01 06:54:54
  TRACK 304 AUDIO
    TITLE "35:cjc024_4547"
    INDEX 01 06:55:02
  TRACK 305 AUDIO
    TITLE "0:"
    INDEX 01 06:57:36
  TRACK 306 AUDIO
    TITLE "32:cjc024_4548"
    INDEX 01 06:58:38
  TRACK 307 AUDIO
    TITLE "0:"
    INDEX 01 06:59:74
  TRACK 308 AUDIO
    TITLE "33:cjc024_4549"
    INDEX 01 07:00:38
  TRACK 309 AUDIO
    TITLE "0:"
    INDEX 01 07:02:73
  TRACK 310 AUDIO
    TITLE "34:cjc024_4550"
    INDEX 01 07:03:33
  TRACK 311 AUDIO
    TITLE "0:"
    INDEX 01 07:05:61
  TRACK 312 AUDIO
    TITLE "35:cjc024_4551"
    INDEX 01 07:06:12
  TRACK 313 AUDIO
    TITLE "0:"
    INDEX 01 07:08:38
  TRACK 314 AUDIO
    TITLE "32:cjc024_4552"
    INDEX 01 07:09:37
  TRACK 315 AUDIO
    TITLE "0:"
    INDEX 01 07:10:66
  TRACK 316 AUDIO
    TITLE "33:cjc024_4553"
    INDEX 01 07:11:28
  TRACK 317 AUDIO
    TITLE "0:"
    INDEX 01 07:14:27
  TRACK 318 AUDIO
    TITLE "34:cjc024_4554"
    INDEX 01 07:14:64
  TRACK 319 AUDIO
    TITLE "0:"
    INDEX 01 07:17:33
  TRACK 320 AUDIO
    TITLE "35:cjc024_4555"
    INDEX 01 07:17:58
  TRACK 321 AUDIO
    TITLE "0:"
    INDEX 01 07:20:27
  TRACK 322 AUDIO
    TITLE "32:cjc024_4556"
    INDEX 01 07:21:27
  TRACK 323 AUDIO
    TITLE "0:"
    INDEX 01 07:22:26
  TRACK 324 AUDIO
    TITLE "33:cjc024_4557"
    INDEX 01 07:22:66
  TRACK 325 AUDIO
    TITLE "0:"
    INDEX 01 07:25:33
  TRACK 326 AUDIO
    TITLE "34:cjc024_4558"
    INDEX 01 07:25:72
  TRACK 327 AUDIO
    TITLE "0:"
    INDEX 01 07:27:69
  TRACK 328 AUDIO
    TITLE "35:cjc024_4559"
    INDEX 01 07:28:15
  TRACK 329 AUDIO
    TITLE "0:"
    INDEX 01 07:30:12
  TRACK 330 AUDIO
    TITLE "32:cjc024_4560"
    INDEX 01 07:31:12
  TRACK 331 AUDIO
    TITLE "0:"
    INDEX 01 07:32:07
  TRACK 332 AUDIO
    TITLE "33:cjc024_4561"
    INDEX 01 07:32:46
  TRACK 333 AUDIO
    TITLE "0:"
    INDEX 01 07:35:62
  TRACK 334 AUDIO
    TITLE "34:cjc024_4562"
    INDEX 01 07:36:26
  TRACK 335 AUDIO
    TITLE "0:"
    INDEX 01 07:38:39
  TRACK 336 AUDIO
    TITLE "35:cjc024_4563"
    INDEX 01 07:38:65
  TRACK 337 AUDIO
    TITLE "0:"
    INDEX 01 07:41:02
  TRACK 338 AUDIO
    TITLE "32:cjc024_4564"
    INDEX 01 07:42:02
  TRACK 339 AUDIO
    TITLE "0:"
    INDEX 01 07:43:07
  TRACK 340 AUDIO
    TITLE "33:cjc024_4565"
    INDEX 01 07:43:44
  TRACK 341 AUDIO
    TITLE "0:"
    INDEX 01 07:46:64
  TRACK 342 AUDIO
    TITLE "34:cjc024_4566"
    INDEX 01 07:47:26
  TRACK 343 AUDIO
    TITLE "0:"
    INDEX 01 07:49:51
  TRACK 344 AUDIO
    TITLE "35:cjc024_4567"
    INDEX 01 07:49:72
  TRACK 345 AUDIO
    TITLE "0:"
    INDEX 01 07:52:24
  TRACK 346 AUDIO
    TITLE "32:cjc024_4568"
    INDEX 01 07:53:21
  TRACK 347 AUDIO
    TITLE "0:"
    INDEX 01 07:54:18
  TRACK 348 AUDIO
    TITLE "33:cjc024_4569"
    INDEX 01 07:54:58
  TRACK 349 AUDIO
    TITLE "0:"
    INDEX 01 07:57:27
  TRACK 350 AUDIO
    TITLE "34:cjc024_4570"
    INDEX 01 07:57:64
  TRACK 351 AUDIO
    TITLE "0:"
    INDEX 01 08:00:15
  TRACK 352 AUDIO
    TITLE "35:cjc024_4571"
    INDEX 01 08:00:43
  TRACK 353 AUDIO
    TITLE "0:"
    INDEX 01 08:02:69
  TRACK 354 AUDIO
    TITLE "32:cjc024_4572"
    INDEX 01 08:03:68
  TRACK 355 AUDIO
    TITLE "0:"
    INDEX 01 08:04:72
  TRACK 356 AUDIO
    TITLE "33:cjc024_4573"
    INDEX 01 08:05:34
  TRACK 357 AUDIO
    TITLE "0:"
    INDEX 01 08:08:44
  TRACK 358 AUDIO
    TITLE "34:cjc024_4574"
    INDEX 01 08:09:08
  TRACK 359 AUDIO
    TITLE "0:"
    INDEX 01 08:12:01
  TRACK 360 AUDIO
    TITLE "35:cjc024_4575"
    INDEX 01 08:12:24
  TRACK 361 AUDIO
    TITLE "0:"
    INDEX 01 08:15:19
  TRACK 362 AUDIO
    TITLE "32:cjc024_4576"
    INDEX 01 08:16:18
  TRACK 363 AUDIO
    TITLE "0:"
    INDEX 01 08:17:20
  TRACK 364 AUDIO
    TITLE "33:cjc024_4577"
    INDEX 01 08:17:61
  TRACK 365 AUDIO
    TITLE "0:"
    INDEX 01 08:20:36
  TRACK 366 AUDIO
    TITLE "34:cjc024_4578"
    INDEX 01 08:20:73
  TRACK 367 AUDIO
    TITLE "0:"
    INDEX 01 08:23:16
  TRACK 368 AUDIO
    TITLE "35:cjc024_4579"
    INDEX 01 08:23:42
  TRACK 369 AUDIO
    TITLE "0:"
    INDEX 01 08:25:62
  TRACK 370 AUDIO
    TITLE "32:cjc024_4580"
    INDEX 01 08:26:62
  TRACK 371 AUDIO
    TITLE "0:"
    INDEX 01 08:27:53
  TRACK 372 AUDIO
    TITLE "33:cjc024_4581"
    INDEX 01 08:28:15
  TRACK 373 AUDIO
    TITLE "0:"
    INDEX 01 08:30:32
  TRACK 374 AUDIO
    TITLE "34:cjc024_4582"
    INDEX 01 08:30:67
  TRACK 375 AUDIO
    TITLE "0:"
    INDEX 01 08:32:66
  TRACK 376 AUDIO
    TITLE "35:cjc024_4583"
    INDEX 01 08:33:21
  TRACK 377 AUDIO
    TITLE "0:"
    INDEX 01 08:35:17
  TRACK 378 AUDIO
    TITLE "32:cjc024_4584"
    INDEX 01 08:36:19
  TRACK 379 AUDIO
    TITLE "0:"
    INDEX 01 08:37:48
  TRACK 380 AUDIO
    TITLE "33:cjc024_4585"
    INDEX 01 08:38:08
  TRACK 381 AUDIO
    TITLE "0:"
    INDEX 01 08:40:68
  TRACK 382 AUDIO
    TITLE "34:cjc024_4586"
    INDEX 01 08:41:28
  TRACK 383 AUDIO
    TITLE "0:"
    INDEX 01 08:43:62
  TRACK 384 AUDIO
    TITLE "35:cjc024_4587"
    INDEX 01 08:44:11
  TRACK 385 AUDIO
    TITLE "0:"
    INDEX 01 08:46:47
  TRACK 386 AUDIO
    TITLE "32:cjc024_4588"
    INDEX 01 08:47:44
  TRACK 387 AUDIO
    TITLE "0:"
    INDEX 01 08:48:48
  TRACK 388 AUDIO
    TITLE "33:cjc024_4589"
    INDEX 01 08:49:10
  TRACK 389 AUDIO
    TITLE "0:"
    INDEX 01 08:52:32
  TRACK 390 AUDIO
    TITLE "34:cjc024_4590"
    INDEX 01 08:52:65
  TRACK 391 AUDIO
    TITLE "0:"
    INDEX 01 08:55:24
  TRACK 392 AUDIO
    TITLE "35:cjc024_4591"
    INDEX 01 08:55:50
  TRACK 393 AUDIO
    TITLE "0:"
    INDEX 01 08:58:09
  TRACK 394 AUDIO
    TITLE "32:cjc024_4592"
    INDEX 01 08:59:02
  TRACK 395 AUDIO
    TITLE "0:"
    INDEX 01 09:00:04
  TRACK 396 AUDIO
    TITLE "33:cjc024_4593"
    INDEX 01 09:00:37
  TRACK 397 AUDIO
    TITLE "0:"
    INDEX 01 09:02:69
  TRACK 398 AUDIO
    TITLE "34:cjc024_4594"
    INDEX 01 09:03:31
  TRACK 399 AUDIO
    TITLE "0:"
    INDEX 01 09:05:19
  TRACK 400 AUDIO
    TITLE "35:cjc024_4595"
    INDEX 01 09:05:44
  TRACK 401 AUDIO
    TITLE "0:"
    INDEX 01 09:07:29
  TRACK 402 AUDIO
    TITLE "32:cjc024_4596"
    INDEX 01 09:08:33
  TRACK 403 AUDIO
    TITLE "0:"
    INDEX 01 09:09:50
  TRACK 404 AUDIO
    TITLE "33:cjc024_4597"
    INDEX 01 09:10:10
  TRACK 405 AUDIO
    TITLE "0:"
    INDEX 01 09:12:40
  TRACK 406 AUDIO
    TITLE "34:cjc024_4598"
    INDEX 01 09:13:04
  TRACK 407 AUDIO
    TITLE "0:"
    INDEX 01 09:14:72
  TRACK 408 AUDIO
    TITLE "35:cjc024_4599"
    INDEX 01 09:15:25
  TRACK 409 AUDIO
    TITLE "0:"
    INDEX 01 09:17:20
  TRACK 410 AUDIO
    TITLE "32:cjc024_4600"
    INDEX 01 09:18:17
  TRACK 411 AUDIO
    TITLE "0:"
    INDEX 01 09:19:32
  TRACK 412 AUDIO
    TITLE "33:cjc024_4601"
    INDEX 01 09:19:74
  TRACK 413 AUDIO
    TITLE "0:"
    INDEX 01 09:23:16
  TRACK 414 AUDIO
    TITLE "34:cjc024_4602"
    INDEX 01 09:23:56
  TRACK 415 AUDIO
    TITLE "0:"
    INDEX 01 09:26:40
  TRACK 416 AUDIO
    TITLE "35:cjc024_4603"
    INDEX 01 09:26:68
  TRACK 417 AUDIO
    TITLE "0:"
    INDEX 01 09:29:54
  TRACK 418 AUDIO
    TITLE "32:cjc024_4604"
    INDEX 01 09:30:54
  TRACK 419 AUDIO
    TITLE "0:"
    INDEX 01 09:31:55
  TRACK 420 AUDIO
    TITLE "33:cjc024_4605"
    INDEX 01 09:32:25
  TRACK 421 AUDIO
    TITLE "0:"
    INDEX 01 09:35:35
  TRACK 422 AUDIO
    TITLE "34:cjc024_4606"
    INDEX 01 09:36:00
  TRACK 423 AUDIO
    TITLE "0:"
    INDEX 01 09:38:41
  TRACK 424 AUDIO
    TITLE "35:cjc024_4607"
    INDEX 01 09:39:00
  TRACK 425 AUDIO
    TITLE "0:"
    INDEX 01 09:41:50
  TRACK 426 AUDIO
    TITLE "32:cjc024_4608"
    INDEX 01 09:42:47
  TRACK 427 AUDIO
    TITLE "0:"
    INDEX 01 09:43:72
  TRACK 428 AUDIO
    TITLE "33:cjc024_4609"
    INDEX 01 09:44:34
  TRACK 429 AUDIO
    TITLE "0:"
    INDEX 01 09:47:05
  TRACK 430 AUDIO
    TITLE "34:cjc024_4610"
    INDEX 01 09:47:42
  TRACK 431 AUDIO
    TITLE "0:"
    INDEX 01 09:50:29
  TRACK 432 AUDIO
    TITLE "35:cjc024_4611"
    INDEX 01 09:50:56
  TRACK 433 AUDIO
    TITLE "0:"
    INDEX 01 09:53:41
  TRACK 434 AUDIO
    TITLE "32:cjc024_4612"
    INDEX 01 09:54:42
  TRACK 435 AUDIO
    TITLE "0:"
    INDEX 01 09:55:42
  TRACK 436 AUDIO
    TITLE "33:cjc024_4613"
    INDEX 01 09:56:00
  TRACK 437 AUDIO
    TITLE "0:"
    INDEX 01 09:58:36
  TRACK 438 AUDIO
    TITLE "34:cjc024_4614"
    INDEX 01 09:59:03
  TRACK 439 AUDIO
    TITLE "0:"
    INDEX 01 10:00:67
  TRACK 440 AUDIO
    TITLE "35:cjc024_4615"
    INDEX 01 10:01:19
  TRACK 441 AUDIO
    TITLE "0:"
    INDEX 01 10:03:08
  TRACK 442 AUDIO
    TITLE "32:cjc024_4616"
    INDEX 01 10:04:10
  TRACK 443 AUDIO
    TITLE "0:"
    INDEX 01 10:05:33
  TRACK 444 AUDIO
    TITLE "33:cjc024_4617"
    INDEX 01 10:05:70
  TRACK 445 AUDIO
    TITLE "0:"
    INDEX 01 10:08:43
  TRACK 446 AUDIO
    TITLE "34:cjc024_4618"
    INDEX 01 10:09:05
  TRACK 447 AUDIO
    TITLE "0:"
    INDEX 01 10:11:64
  TRACK 448 AUDIO
    TITLE "35:cjc024_4619"
    INDEX 01 10:12:25
  TRACK 449 AUDIO
    TITLE "0:"
    INDEX 01 10:15:09
  TRACK 450 AUDIO
    TITLE "32:cjc024_4620"
    INDEX 01 10:16:21
  TRACK 451 AUDIO
    TITLE "0:"
    INDEX 01 10:17:20
  TRACK 452 AUDIO
    TITLE "33:cjc024_4621"
    INDEX 01 10:17:61
  TRACK 453 AUDIO
    TITLE "0:"
    INDEX 01 10:20:36
  TRACK 454 AUDIO
    TITLE "34:cjc024_4622"
    INDEX 01 10:21:02
  TRACK 455 AUDIO
    TITLE "0:"
    INDEX 01 10:23:66
  TRACK 456 AUDIO
    TITLE "35:cjc024_4623"
    INDEX 01 10:24:16
  TRACK 457 AUDIO
    TITLE "0:"
    INDEX 01 10:27:07
  TRACK 458 AUDIO
    TITLE "32:cjc024_4624"
    INDEX 01 10:28:02
  TRACK 459 AUDIO
    TITLE "0:"
    INDEX 01 10:29:11
  TRACK 460 AUDIO
    TITLE "33:cjc024_4625"
    INDEX 01 10:29:55
  TRACK 461 AUDIO
    TITLE "0:"
    INDEX 01 10:32:43
  TRACK 462 AUDIO
    TITLE "34:cjc024_4626"
    INDEX 01 10:33:05
  TRACK 463 AUDIO
    TITLE "0:"
    INDEX 01 10:35:38
  TRACK 464 AUDIO
    TITLE "35:cjc024_4627"
    INDEX 01 10:35:63
  TRACK 465 AUDIO
    TITLE "0:"
    INDEX 01 10:38:20
  TRACK 466 AUDIO
    TITLE "32:cjc024_4628"
    INDEX 01 10:39:22
  TRACK 467 AUDIO
    TITLE "0:"
    INDEX 01 10:40:33
  TRACK 468 AUDIO
    TITLE "33:cjc024_4629"
    INDEX 01 10:40:68
  TRACK 469 AUDIO
    TITLE "0:"
    INDEX 01 10:43:47
  TRACK 470 AUDIO
    TITLE "34:cjc024_4630"
    INDEX 01 10:44:07
  TRACK 471 AUDIO
    TITLE "0:"
    INDEX 01 10:46:51
  TRACK 472 AUDIO
    TITLE "35:cjc024_4631"
    INDEX 01 10:47:03
  TRACK 473 AUDIO
    TITLE "0:"
    INDEX 01 10:49:45
  TRACK 474 AUDIO
    TITLE "32:cjc024_4632"
    INDEX 01 10:50:51
  TRACK 475 AUDIO
    TITLE "0:"
    INDEX 01 10:52:03
  TRACK 476 AUDIO
    TITLE "33:cjc024_4633"
    INDEX 01 10:52:40
  TRACK 477 AUDIO
    TITLE "0:"
    INDEX 01 10:55:50
  TRACK 478 AUDIO
    TITLE "34:cjc024_4634"
    INDEX 01 10:56:10
  TRACK 479 AUDIO
    TITLE "0:"
    INDEX 01 10:58:72
  TRACK 480 AUDIO
    TITLE "35:cjc024_4635"
    INDEX 01 10:59:20
  TRACK 481 AUDIO
    TITLE "0:"
    INDEX 01 11:02:05
  TRACK 482 AUDIO
    TITLE "32:cjc024_4636"
    INDEX 01 11:03:12
  TRACK 483 AUDIO
    TITLE "0:"
    INDEX 01 11:04:16
  TRACK 484 AUDIO
    TITLE "33:cjc024_4637"
    INDEX 01 11:04:51
  TRACK 485 AUDIO
    TITLE "0:"
    INDEX 01 11:08:04
  TRACK 486 AUDIO
    TITLE "34:cjc024_4638"
    INDEX 01 11:08:51
  TRACK 487 AUDIO
    TITLE "0:"
    INDEX 01 11:10:50
  TRACK 488 AUDIO
    TITLE "35:cjc024_4639"
    INDEX 01 11:11:06
  TRACK 489 AUDIO
    TITLE "0:"
    INDEX 01 11:13:07
  TRACK 490 AUDIO
    TITLE "32:cjc024_4640"
    INDEX 01 11:14:06
  TRACK 491 AUDIO
    TITLE "0:"
    INDEX 01 11:15:08
  TRACK 492 AUDIO
    TITLE "33:cjc024_4641"
    INDEX 01 11:15:41
  TRACK 493 AUDIO
    TITLE "0:"
    INDEX 01 11:17:71
  TRACK 494 AUDIO
    TITLE "34:cjc024_4642"
    INDEX 01 11:18:33
  TRACK 495 AUDIO
    TITLE "0:"
    INDEX 01 11:20:21
  TRACK 496 AUDIO
    TITLE "35:cjc024_4643"
    INDEX 01 11:20:56
  TRACK 497 AUDIO
    TITLE "0:"
    INDEX 01 11:22:39
  TRACK 498 AUDIO
    TITLE "32:cjc024_4644"
    INDEX 01 11:23:44
  TRACK 499 AUDIO
    TITLE "0:"
    INDEX 01 11:24:63
  TRACK 500 AUDIO
    TITLE "33:cjc024_4645"
    INDEX 01 11:25:28
  TRACK 501 AUDIO
    TITLE "0:"
    INDEX 01 11:27:74
  TRACK 502 AUDIO
    TITLE "34:cjc024_4646"
    INDEX 01 11:28:36
  TRACK 503 AUDIO
    TITLE "0:"
    INDEX 01 11:31:01
  TRACK 504 AUDIO
    TITLE "35:cjc024_4647"
    INDEX 01 11:31:24
  TRACK 505 AUDIO
    TITLE "0:"
    INDEX 01 11:33:64
  TRACK 506 AUDIO
    TITLE "32:cjc024_4648"
    INDEX 01 11:34:66
  TRACK 507 AUDIO
    TITLE "0:"
    INDEX 01 11:36:20
  TRACK 508 AUDIO
    TITLE "33:cjc024_4649"
    INDEX 01 11:36:57
  TRACK 509 AUDIO
    TITLE "0:"
    INDEX 01 11:39:45
  TRACK 510 AUDIO
    TITLE "34:cjc024_4650"
    INDEX 01 11:40:12
  TRACK 511 AUDIO
    TITLE "0:"
    INDEX 01 11:42:26
  TRACK 512 AUDIO
    TITLE "35:cjc024_4651"
    INDEX 01 11:42:54
  TRACK 513 AUDIO
    TITLE "0:"
    INDEX 01 11:44:68
  TRACK 514 AUDIO
    TITLE "32:cjc024_4652"
    INDEX 01 11:45:69
  TRACK 515 AUDIO
    TITLE "0:"
    INDEX 01 11:47:21
  TRACK 516 AUDIO
    TITLE "33:cjc024_4653"
    INDEX 01 11:47:61
  TRACK 517 AUDIO
    TITLE "0:"
    INDEX 01 11:49:42
  TRACK 518 AUDIO
    TITLE "34:cjc024_4654"
    INDEX 01 11:50:06
  TRACK 519 AUDIO
    TITLE "0:"
    INDEX 01 11:52:42
  TRACK 520 AUDIO
    TITLE "35:cjc024_4655"
    INDEX 01 11:52:70
  TRACK 521 AUDIO
    TITLE "0:"
    INDEX 01 11:55:33
  TRACK 522 AUDIO
    TITLE "32:cjc024_4656"
    INDEX 01 11:56:30
  TRACK 523 AUDIO
    TITLE "0:"
    INDEX 01 11:57:32
  TRACK 524 AUDIO
    TITLE "33:cjc024_4657"
    INDEX 01 11:57:71
  TRACK 525 AUDIO
    TITLE "0:"
    INDEX 01 12:00:24
  TRACK 526 AUDIO
    TITLE "34:cjc024_4658"
    INDEX 01 12:00:63
  TRACK 527 AUDIO
    TITLE "0:"
    INDEX 01 12:03:01
  TRACK 528 AUDIO
    TITLE "35:cjc024_4659"
    INDEX 01 12:03:24
  TRACK 529 AUDIO
    TITLE "0:"
    INDEX 01 12:05:33
  TRACK 530 AUDIO
    TITLE "32:cjc024_4660"
    INDEX 01 12:06:32
  TRACK 531 AUDIO
    TITLE "0:"
    INDEX 01 12:07:38
  TRACK 532 AUDIO
    TITLE "33:cjc024_4661"
    INDEX 01 12:07:73
  TRACK 533 AUDIO
    TITLE "0:"
    INDEX 01 12:10:15
  TRACK 534 AUDIO
    TITLE "34:cjc024_4662"
    INDEX 01 12:10:54
  TRACK 535 AUDIO
    TITLE "0:"
    INDEX 01 12:13:09
  TRACK 536 AUDIO
    TITLE "35:cjc024_4663"
    INDEX 01 12:13:33
  TRACK 537 AUDIO
    TITLE "0:"
    INDEX 01 12:15:67
  TRACK 538 AUDIO
    TITLE "32:cjc024_4664"
    INDEX 01 12:16:66
  TRACK 539 AUDIO
    TITLE "0:"
    INDEX 01 12:18:00
  TRACK 540 AUDIO
    TITLE "33:cjc024_4665"
    INDEX 01 12:18:42
  TRACK 541 AUDIO
    TITLE "0:"
    INDEX 01 12:21:12
  TRACK 542 AUDIO
    TITLE "34:cjc024_4666"
    INDEX 01 12:21:52
  TRACK 543 AUDIO
    TITLE "0:"
    INDEX 01 12:23:64
  TRACK 544 AUDIO
    TITLE "35:cjc024_4667"
    INDEX 01 12:24:17
  TRACK 545 AUDIO
    TITLE "0:"
    INDEX 01 12:26:29
  TRACK 546 AUDIO
    TITLE "32:cjc024_4668"
    INDEX 01 12:27:33
  TRACK 547 AUDIO
    TITLE "0:"
    INDEX 01 12:28:56
  TRACK 548 AUDIO
    TITLE "33:cjc024_4669"
    INDEX 01 12:29:22
  TRACK 549 AUDIO
    TITLE "0:"
    INDEX 01 12:31:74
  TRACK 550 AUDIO
    TITLE "34:cjc024_4670"
    INDEX 01 12:32:38
  TRACK 551 AUDIO
    TITLE "0:"
    INDEX 01 12:35:15
  TRACK 552 AUDIO
    TITLE "35:cjc024_4671"
    INDEX 01 12:35:40
  TRACK 553 AUDIO
    TITLE "0:"
    INDEX 01 12:38:21
  TRACK 554 AUDIO
    TITLE "32:cjc024_4672"
    INDEX 01 12:39:20
  TRACK 555 AUDIO
    TITLE "0:"
    INDEX 01 12:40:35
  TRACK 556 AUDIO
    TITLE "33:cjc024_4673"
    INDEX 01 12:40:74
  TRACK 557 AUDIO
    TITLE "0:"
    INDEX 01 12:43:53
  TRACK 558 AUDIO
    TITLE "34:cjc024_4674"
    INDEX 01 12:44:15
  TRACK 559 AUDIO
    TITLE "0:"
    INDEX 01 12:46:52
  TRACK 560 AUDIO
    TITLE "35:cjc024_4675"
    INDEX 01 12:46:73
  TRACK 561 AUDIO
    TITLE "0:"
    INDEX 01 12:49:32
  TRACK 562 AUDIO
    TITLE "32:cjc024_4676"
    INDEX 01 12:50:32
  TRACK 563 AUDIO
    TITLE "0:"
    INDEX 01 12:51:27
  TRACK 564 AUDIO
    TITLE "33:cjc024_4677"
    INDEX 01 12:51:68
  TRACK 565 AUDIO
    TITLE "0:"
    INDEX 01 12:54:20
  TRACK 566 AUDIO
    TITLE "34:cjc024_4678"
    INDEX 01 12:54:57
  TRACK 567 AUDIO
    TITLE "0:"
    INDEX 01 12:57:08
  TRACK 568 AUDIO
    TITLE "35:cjc024_4679"
    INDEX 01 12:57:36
  TRACK 569 AUDIO
    TITLE "0:"
    INDEX 01 12:59:60
  TRACK 570 AUDIO
    TITLE "32:cjc024_4680"
    INDEX 01 13:00:60
  TRACK 571 AUDIO
    TITLE "0:"
    INDEX 01 13:01:67
  TRACK 572 AUDIO
    TITLE "33:cjc024_4681"
    INDEX 01 13:02:29
  TRACK 573 AUDIO
    TITLE "0:"
    INDEX 01 13:04:59
  TRACK 574 AUDIO
    TITLE "34:cjc024_4682"
    INDEX 01 13:05:27
  TRACK 575 AUDIO
    TITLE "0:"
    INDEX 01 13:07:48
  TRACK 576 AUDIO
    TITLE "35:cjc024_4683"
    INDEX 01 13:07:71
  TRACK 577 AUDIO
    TITLE "0:"
    INDEX 01 13:10:17
  TRACK 578 AUDIO
    TITLE "32:cjc024_4684"
    INDEX 01 13:11:14
  TRACK 579 AUDIO
    TITLE "0:"
    INDEX 01 13:12:16
  TRACK 580 AUDIO
    TITLE "33:cjc024_4685"
    INDEX 01 13:12:53
  TRACK 581 AUDIO
    TITLE "0:"
    INDEX 01 13:15:63
  TRACK 582 AUDIO
    TITLE "34:cjc024_4686"
    INDEX 01 13:16:27
  TRACK 583 AUDIO
    TITLE "0:"
    INDEX 01 13:18:44
  TRACK 584 AUDIO
    TITLE "35:cjc024_4687"
    INDEX 01 13:18:67
  TRACK 585 AUDIO
    TITLE "0:"
    INDEX 01 13:21:09
  TRACK 586 AUDIO
    TITLE "32:cjc024_4688"
    INDEX 01 13:22:08
  TRACK 587 AUDIO
    TITLE "0:"
    INDEX 01 13:23:08
  TRACK 588 AUDIO
    TITLE "33:cjc024_4689"
    INDEX 01 13:23:47
  TRACK 589 AUDIO
    TITLE "0:"
    INDEX 01 13:26:41
  TRACK 590 AUDIO
    TITLE "34:cjc024_4690"
    INDEX 01 13:27:05
  TRACK 591 AUDIO
    TITLE "0:"
    INDEX 01 13:29:30
  TRACK 592 AUDIO
    TITLE "35:cjc024_4691"
    INDEX 01 13:29:55
  TRACK 593 AUDIO
    TITLE "0:"
    INDEX 01 13:32:05
  TRACK 594 AUDIO
    TITLE "32:cjc024_4692"
    INDEX 01 13:33:06
  TRACK 595 AUDIO
    TITLE "0:"
    INDEX 01 13:34:35
  TRACK 596 AUDIO
    TITLE "33:cjc024_4693"
    INDEX 01 13:34:70
  TRACK 597 AUDIO
    TITLE "0:"
    INDEX 01 13:37:55
  TRACK 598 AUDIO
    TITLE "34:cjc024_4694"
    INDEX 01 13:38:15
  TRACK 599 AUDIO
    TITLE "0:"
    INDEX 01 13:41:09
  TRACK 600 AUDIO
    TITLE "35:cjc024_4695"
    INDEX 01 13:41:39
  TRACK 601 AUDIO
    TITLE "0:"
    INDEX 01 13:44:29
  TRACK 602 AUDIO
    TITLE "32:cjc024_4696"
    INDEX 01 13:45:33
  TRACK 603 AUDIO
    TITLE "0:"
    INDEX 01 13:46:40
  TRACK 604 AUDIO
    TITLE "33:cjc024_4697"
    INDEX 01 13:47:04
  TRACK 605 AUDIO
    TITLE "0:"
    INDEX 01 13:49:64
  TRACK 606 AUDIO
    TITLE "34:cjc024_4698"
    INDEX 01 13:50:24
  TRACK 607 AUDIO
    TITLE "0:"
    INDEX 01 13:52:41
  TRACK 608 AUDIO
    TITLE "35:cjc024_4699"
    INDEX 01 13:52:66
  TRACK 609 AUDIO
    TITLE "0:"
    INDEX 01 13:55:08
  TRACK 610 AUDIO
    TITLE "32:cjc024_4700"
    INDEX 01 13:56:07
  TRACK 611 AUDIO
    TITLE "0:"
    INDEX 01 13:57:09
  TRACK 612 AUDIO
    TITLE "33:cjc024_4701"
    INDEX 01 13:57:46
  TRACK 613 AUDIO
    TITLE "0:"
    INDEX 01 14:00:09
  TRACK 614 AUDIO
    TITLE "34:cjc024_4702"
    INDEX 01 14:00:42
  TRACK 615 AUDIO
    TITLE "0:"
    INDEX 01 14:02:53
  TRACK 616 AUDIO
    TITLE "35:cjc024_4703"
    INDEX 01 14:02:74
  TRACK 617 AUDIO
    TITLE "0:"
    INDEX 01 14:05:10
  TRACK 618 AUDIO
    TITLE "32:cjc024_4704"
    INDEX 01 14:06:07
  TRACK 619 AUDIO
    TITLE "0:"
    INDEX 01 14:07:27
  TRACK 620 AUDIO
    TITLE "33:cjc024_4705"
    INDEX 01 14:07:68
  TRACK 621 AUDIO
    TITLE "0:"
    INDEX 01 14:10:35
  TRACK 622 AUDIO
    TITLE "34:cjc024_4706"
    INDEX 01 14:10:72
  TRACK 623 AUDIO
    TITLE "0:"
    INDEX 01 14:13:27
  TRACK 624 AUDIO
    TITLE "35:cjc024_4707"
    INDEX 01 14:13:60
  TRACK 625 AUDIO
    TITLE "0:"
    INDEX 01 14:16:20
  TRACK 626 AUDIO
    TITLE "32:cjc024_4708"
    INDEX 01 14:17:27
  TRACK 627 AUDIO
    TITLE "0:"
    INDEX 01 14:18:52
  TRACK 628 AUDIO
    TITLE "33:cjc024_4709"
    INDEX 01 14:19:18
  TRACK 629 AUDIO
    TITLE "0:"
    INDEX 01 14:22:54
  TRACK 630 AUDIO
    TITLE "34:cjc024_4710"
    INDEX 01 14:23:26
  TRACK 631 AUDIO
    TITLE "0:"
    INDEX 01 14:25:56
  TRACK 632 AUDIO
    TITLE "35:cjc024_4711"
    INDEX 01 14:26:12
  TRACK 633 AUDIO
    TITLE "0:"
    INDEX 01 14:28:42
  TRACK 634 AUDIO
    TITLE "32:cjc024_4712"
    INDEX 01 14:29:50
  TRACK 635 AUDIO
    TITLE "0:"
    INDEX 01 14:31:00
  TRACK 636 AUDIO
    TITLE "33:cjc024_4713"
    INDEX 01 14:31:37
  TRACK 637 AUDIO
    TITLE "0:"
    INDEX 01 14:33:55
  TRACK 638 AUDIO
    TITLE "34:cjc024_4714"
    INDEX 01 14:34:18
  TRACK 639 AUDIO
    TITLE "0:"
    INDEX 01 14:36:60
  TRACK 640 AUDIO
    TITLE "35:cjc024_4715"
    INDEX 01 14:37:10
  TRACK 641 AUDIO
    TITLE "0:"
    INDEX 01 14:39:48
  TRACK 642 AUDIO
    TITLE "32:cjc024_4716"
    INDEX 01 14:40:48
  TRACK 643 AUDIO
    TITLE "0:"
    INDEX 01 14:41:61
  TRACK 644 AUDIO
    TITLE "33:cjc024_4717"
    INDEX 01 14:42:27
  TRACK 645 AUDIO
    TITLE "0:"
    INDEX 01 14:44:63
  TRACK 646 AUDIO
    TITLE "34:cjc024_4718"
    INDEX 01 14:45:23
  TRACK 647 AUDIO
    TITLE "0:"
    INDEX 01 14:47:61
  TRACK 648 AUDIO
    TITLE "35:cjc024_4719"
    INDEX 01 14:48:12
  TRACK 649 AUDIO
    TITLE "0:"
    INDEX 01 14:50:52
  TRACK 650 AUDIO
    TITLE "32:cjc024_4720"
    INDEX 01 14:51:47
  TRACK 651 AUDIO
    TITLE "0:"
    INDEX 01 14:52:43
  TRACK 652 AUDIO
    TITLE "33:cjc024_4721"
    INDEX 01 14:53:05
  TRACK 653 AUDIO
    TITLE "0:"
    INDEX 01 14:55:55
  TRACK 654 AUDIO
    TITLE "34:cjc024_4722"
    INDEX 01 14:56:15
  TRACK 655 AUDIO
    TITLE "0:"
    INDEX 01 14:58:49
  TRACK 656 AUDIO
    TITLE "35:cjc024_4723"
    INDEX 01 14:59:00
  TRACK 657 AUDIO
    TITLE "0:"
    INDEX 01 15:01:34
  TRACK 658 AUDIO
    TITLE "32:cjc024_4724"
    INDEX 01 15:02:30
  TRACK 659 AUDIO
    TITLE "0:"
    INDEX 01 15:03:35
  TRACK 660 AUDIO
    TITLE "33:cjc024_4725"
    INDEX 01 15:03:70
  TRACK 661 AUDIO
    TITLE "0:"
    INDEX 01 15:06:61
  TRACK 662 AUDIO
    TITLE "34:cjc024_4726"
    INDEX 01 15:07:23
  TRACK 663 AUDIO
    TITLE "0:"
    INDEX 01 15:10:09
  TRACK 664 AUDIO
    TITLE "35:cjc024_4727"
    INDEX 01 15:10:35
  TRACK 665 AUDIO
    TITLE "0:"
    INDEX 01 15:13:21
  TRACK 666 AUDIO
    TITLE "32:cjc024_4728"
    INDEX 01 15:14:23
  TRACK 667 AUDIO
    TITLE "0:"
    INDEX 01 15:15:32
  TRACK 668 AUDIO
    TITLE "33:cjc024_4729"
    INDEX 01 15:16:00
  TRACK 669 AUDIO
    TITLE "0:"
    INDEX 01 15:18:68
  TRACK 670 AUDIO
    TITLE "34:cjc024_4730"
    INDEX 01 15:19:30
  TRACK 671 AUDIO
    TITLE "0:"
    INDEX 01 15:22:18
  TRACK 672 AUDIO
    TITLE "35:cjc024_4731"
    INDEX 01 15:22:48
  TRACK 673 AUDIO
    TITLE "0:"
    INDEX 01 15:25:36
  TRACK 674 AUDIO
    TITLE "32:cjc024_4732"
    INDEX 01 15:26:40
  TRACK 675 AUDIO
    TITLE "0:"
    INDEX 01 15:27:31
  TRACK 676 AUDIO
    TITLE "33:cjc024_4733"
    INDEX 01 15:28:00
  TRACK 677 AUDIO
    TITLE "0:"
    INDEX 01 15:30:49
  TRACK 678 AUDIO
    TITLE "34:cjc024_4734"
    INDEX 01 15:31:14
  TRACK 679 AUDIO
    TITLE "0:"
    INDEX 01 15:33:52
  TRACK 680 AUDIO
    TITLE "35:cjc024_4735"
    INDEX 01 15:34:18
  TRACK 681 AUDIO
    TITLE "0:"
    INDEX 01 15:36:54
  TRACK 682 AUDIO
    TITLE "32:cjc024_4736"
    INDEX 01 15:37:71
  TRACK 683 AUDIO
    TITLE "0:"
    INDEX 01 15:39:09
  TRACK 684 AUDIO
    TITLE "33:cjc024_4737"
    INDEX 01 15:39:58
  TRACK 685 AUDIO
    TITLE "0:"
    INDEX 01 15:43:09
  TRACK 686 AUDIO
    TITLE "34:cjc024_4738"
    INDEX 01 15:43:42
  TRACK 687 AUDIO
    TITLE "0:"
    INDEX 01 15:46:31
  TRACK 688 AUDIO
    TITLE "35:cjc024_4739"
    INDEX 01 15:46:52
  TRACK 689 AUDIO
    TITLE "0:"
    INDEX 01 15:49:41
  TRACK 690 AUDIO
    TITLE "32:cjc024_4740"
    INDEX 01 15:50:36
  TRACK 691 AUDIO
    TITLE "0:"
    INDEX 01 15:51:48
  TRACK 692 AUDIO
    TITLE "33:cjc024_4741"
    INDEX 01 15:52:12
  TRACK 693 AUDIO
    TITLE "0:"
    INDEX 01 15:54:62
  TRACK 694 AUDIO
    TITLE "34:cjc024_4742"
    INDEX 01 15:55:20
  TRACK 695 AUDIO
    TITLE "0:"
    INDEX 01 15:57:40
  TRACK 696 AUDIO
    TITLE "35:cjc024_4743"
    INDEX 01 15:57:64
  TRACK 697 AUDIO
    TITLE "0:"
    INDEX 01 16:00:09
  TRACK 698 AUDIO
    TITLE "32:cjc024_4744"
    INDEX 01 16:01:19
  TRACK 699 AUDIO
    TITLE "0:"
    INDEX 01 16:02:38
  TRACK 700 AUDIO
    TITLE "33:cjc024_4745"
    INDEX 01 16:03:00
  TRACK 701 AUDIO
    TITLE "0:"
    INDEX 01 16:05:09
  TRACK 702 AUDIO
    TITLE "34:cjc024_4746"
    INDEX 01 16:05:44
  TRACK 703 AUDIO
    TITLE "0:"
    INDEX 01 16:08:23
  TRACK 704 AUDIO
    TITLE "35:cjc024_4747"
    INDEX 01 16:08:48
  TRACK 705 AUDIO
    TITLE "0:"
    INDEX 01 16:11:25
  TRACK 706 AUDIO
    TITLE "32:cjc024_4748"
    INDEX 01 16:12:22
  TRACK 707 AUDIO
    TITLE "0:"
    INDEX 01 16:13:26
  TRACK 708 AUDIO
    TITLE "33:cjc024_4749"
    INDEX 01 16:13:63
  TRACK 709 AUDIO
    TITLE "0:"
    INDEX 01 16:16:51
  TRACK 710 AUDIO
    TITLE "34:cjc024_4750"
    INDEX 01 16:17:16
  TRACK 711 AUDIO
    TITLE "0:"
    INDEX 01 16:19:62
  TRACK 712 AUDIO
    TITLE "35:cjc024_4751"
    INDEX 01 16:20:22
  TRACK 713 AUDIO
    TITLE "0:"
    INDEX 01 16:22:72
  TRACK 714 AUDIO
    TITLE "32:cjc024_4752"
    INDEX 01 16:24:04
  TRACK 715 AUDIO
    TITLE "0:"
    INDEX 01 16:25:03
  TRACK 716 AUDIO
    TITLE "33:cjc024_4753"
    INDEX 01 16:25:46
  TRACK 717 AUDIO
    TITLE "0:"
    INDEX 01 16:27:71
  TRACK 718 AUDIO
    TITLE "34:cjc024_4754"
    INDEX 01 16:28:33
  TRACK 719 AUDIO
    TITLE "0:"
    INDEX 01 16:30:48
  TRACK 720 AUDIO
    TITLE "35:cjc024_4755"
    INDEX 01 16:30:71
  TRACK 721 AUDIO
    TITLE "0:"
    INDEX 01 16:33:13
  TRACK 722 AUDIO
    TITLE "32:cjc024_4756"
    INDEX 01 16:34:10
  TRACK 723 AUDIO
    TITLE "0:"
    INDEX 01 16:35:37
  TRACK 724 AUDIO
    TITLE "33:cjc024_4757"
    INDEX 01 16:35:72
  TRACK 725 AUDIO
    TITLE "0:"
    INDEX 01 16:38:12
  TRACK 726 AUDIO
    TITLE "34:cjc024_4758"
    INDEX 01 16:38:45
  TRACK 727 AUDIO
    TITLE "0:"
    INDEX 01 16:40:68
  TRACK 728 AUDIO
    TITLE "35:cjc024_4759"
    INDEX 01 16:41:18
  TRACK 729 AUDIO
    TITLE "0:"
    INDEX 01 16:43:39
  TRACK 730 AUDIO
    TITLE "32:cjc024_4760"
    INDEX 01 16:44:40
  TRACK 731 AUDIO
    TITLE "0:"
    INDEX 01 16:45:59
  TRACK 732 AUDIO
    TITLE "33:cjc024_4761"
    INDEX 01 16:46:17
  TRACK 733 AUDIO
    TITLE "0:"
    INDEX 01 16:48:59
  TRACK 734 AUDIO
    TITLE "34:cjc024_4762"
    INDEX 01 16:49:20
  TRACK 735 AUDIO
    TITLE "0:"
    INDEX 01 16:51:52
  TRACK 736 AUDIO
    TITLE "35:cjc024_4763"
    INDEX 01 16:52:00
  TRACK 737 AUDIO
    TITLE "0:"
    INDEX 01 16:54:29
  TRACK 738 AUDIO
    TITLE "32:cjc024_4764"
    INDEX 01 16:55:32
  TRACK 739 AUDIO
    TITLE "0:"
    INDEX 01 16:56:24
  TRACK 740 AUDIO
    TITLE "33:cjc024_4765"
    INDEX 01 16:56:63
  TRACK 741 AUDIO
    TITLE "0:"
    INDEX 01 16:59:34
  TRACK 742 AUDIO
    TITLE "34:cjc024_4766"
    INDEX 01 16:59:73
  TRACK 743 AUDIO
    TITLE "0:"
    INDEX 01 17:02:28
  TRACK 744 AUDIO
    TITLE "35:cjc024_4767"
    INDEX 01 17:02:54
  TRACK 745 AUDIO
    TITLE "0:"
    INDEX 01 17:05:11
  TRACK 746 AUDIO
    TITLE "32:cjc024_4768"
    INDEX 01 17:06:10
  TRACK 747 AUDIO
    TITLE "0:"
    INDEX 01 17:07:27
  TRACK 748 AUDIO
    TITLE "33:cjc024_4769"
    INDEX 01 17:07:66
  TRACK 749 AUDIO
    TITLE "0:"
    INDEX 01 17:11:27
  TRACK 750 AUDIO
    TITLE "34:cjc024_4770"
    INDEX 01 17:11:64
  TRACK 751 AUDIO
    TITLE "0:"
    INDEX 01 17:14:41
  TRACK 752 AUDIO
    TITLE "35:cjc024_4771"
    INDEX 01 17:14:66
  TRACK 753 AUDIO
    TITLE "0:"
    INDEX 01 17:17:43
  TRACK 754 AUDIO
    TITLE "32:cjc024_4772"
    INDEX 01 17:18:45
  TRACK 755 AUDIO
    TITLE "0:"
    INDEX 01 17:19:56
  TRACK 756 AUDIO
    TITLE "33:cjc024_4773"
    INDEX 01 17:20:20
  TRACK 757 AUDIO
    TITLE "0:"
    INDEX 01 17:23:56
  TRACK 758 AUDIO
    TITLE "34:cjc024_4774"
    INDEX 01 17:24:18
  TRACK 759 AUDIO
    TITLE "0:"
    INDEX 01 17:26:64
  TRACK 760 AUDIO
    TITLE "35:cjc024_4775"
    INDEX 01 17:27:10
  TRACK 761 AUDIO
    TITLE "0:"
    INDEX 01 17:29:56
  TRACK 762 AUDIO
    TITLE "32:cjc024_4776"
    INDEX 01 17:30:58
  TRACK 763 AUDIO
    TITLE "0:"
    INDEX 01 17:32:08
  TRACK 764 AUDIO
    TITLE "33:cjc024_4777"
    INDEX 01 17:32:47
  TRACK 765 AUDIO
    TITLE "0:"
    INDEX 01 17:35:63
  TRACK 766 AUDIO
    TITLE "34:cjc024_4778"
    INDEX 01 17:36:27
  TRACK 767 AUDIO
    TITLE "0:"
    INDEX 01 17:38:73
  TRACK 768 AUDIO
    TITLE "35:cjc024_4779"
    INDEX 01 17:39:21
  TRACK 769 AUDIO
    TITLE "0:"
    INDEX 01 17:41:65
  TRACK 770 AUDIO
    TITLE "32:cjc024_4780"
    INDEX 01 17:42:69
  TRACK 771 AUDIO
    TITLE "0:"
    INDEX 01 17:44:05
  TRACK 772 AUDIO
    TITLE "33:cjc024_4781"
    INDEX 01 17:44:40
  TRACK 773 AUDIO
    TITLE "0:"
    INDEX 01 17:47:33
  TRACK 774 AUDIO
    TITLE "34:cjc024_4782"
    INDEX 01 17:47:70
  TRACK 775 AUDIO
    TITLE "0:"
    INDEX 01 17:50:17
  TRACK 776 AUDIO
    TITLE "35:cjc024_4783"
    INDEX 01 17:50:45
  TRACK 777 AUDIO
    TITLE "0:"
    INDEX 01 17:52:69
  TRACK 778 AUDIO
    TITLE "32:cjc024_4784"
    INDEX 01 17:53:69
  TRACK 779 AUDIO
    TITLE "0:"
    INDEX 01 17:55:15
  TRACK 780 AUDIO
    TITLE "33:cjc024_4785"
    INDEX 01 17:55:52
  TRACK 781 AUDIO
    TITLE "0:"
    INDEX 01 17:58:34
  TRACK 782 AUDIO
    TITLE "34:cjc024_4786"
    INDEX 01 17:59:01
  TRACK 783 AUDIO
    TITLE "0:"
    INDEX 01 18:01:31
  TRACK 784 AUDIO
    TITLE "35:cjc024_4787"
    INDEX 01 18:01:52
  TRACK 785 AUDIO
    TITLE "0:"
    INDEX 01 18:04:12
  TRACK 786 AUDIO
    TITLE "32:cjc024_4788"
    INDEX 01 18:05:09
  TRACK 787 AUDIO
    TITLE "0:"
    INDEX 01 18:06:20
  TRACK 788 AUDIO
    TITLE "33:cjc024_4789"
    INDEX 01 18:06:57
  TRACK 789 AUDIO
    TITLE "0:"
    INDEX 01 18:09:26
  TRACK 790 AUDIO
    TITLE "34:cjc024_4790"
    INDEX 01 18:09:68
  TRACK 791 AUDIO
    TITLE "0:"
    INDEX 01 18:12:13
  TRACK 792 AUDIO
    TITLE "35:cjc024_4791"
    INDEX 01 18:12:36
  TRACK 793 AUDIO
    TITLE "0:"
    INDEX 01 18:14:57
  TRACK 794 AUDIO
    TITLE "32:cjc024_4792"
    INDEX 01 18:15:54
  TRACK 795 AUDIO
    TITLE "0:"
    INDEX 01 18:16:64
  TRACK 796 AUDIO
    TITLE "33:cjc024_4793"
    INDEX 01 18:17:24
  TRACK 797 AUDIO
    TITLE "0:"
    INDEX 01 18:20:20
  TRACK 798 AUDIO
    TITLE "34:cjc024_4794"
    INDEX 01 18:20:60
  TRACK 799 AUDIO
    TITLE "0:"
    INDEX 01 18:23:46
  TRACK 800 AUDIO
    TITLE "35:cjc024_4795"
    INDEX 01 18:23:72
  TRACK 801 AUDIO
    TITLE "0:"
    INDEX 01 18:26:56
